<svg width="20" height="20" viewBox="0 0 20 20" fill="none" xmlns="http://www.w3.org/2000/svg">
<path d="M17.878 0H2.73607C2.33649 0 2 0.336488 2 0.736067V18.8644C2 19.2219 2.18927 19.5584 2.50473 19.7266C2.82019 19.8948 3.19874 19.8738 3.49317 19.6845L5.2387 18.5068L7.23659 19.8318C7.40484 19.9369 7.59411 20 7.78339 20C7.97266 20 8.16193 19.9369 8.30915 19.8318L10.307 18.5068L12.3049 19.8318C12.6414 20.0421 13.062 20.0421 13.3775 19.8318L15.3754 18.5068L17.1209 19.6845C17.4154 19.8738 17.7939 19.8948 18.1094 19.7266C18.4248 19.5584 18.6141 19.2219 18.6141 18.8644V0.736067C18.6141 0.336488 18.2776 0 17.878 0ZM17.142 17.918L15.8801 17.0768C15.5647 16.8665 15.1441 16.8665 14.8076 17.0768L12.8307 18.4017L10.8328 17.0768C10.6856 16.9716 10.4963 16.9295 10.307 16.9295C10.1178 16.9295 9.9285 16.9926 9.78128 17.0978L7.78339 18.4017L5.80652 17.0768C5.49106 16.8665 5.07045 16.8665 4.73396 17.0768L3.47213 17.918V1.47213H17.142V17.918Z" fill="white"/>
<path d="M9.88645 8.24395V8.66456C9.88645 8.76971 9.97058 8.87487 10.0968 8.87487H10.6015C10.7066 8.87487 10.8118 8.79075 10.8118 8.66456V8.26498C11.1903 8.20189 11.4848 8.05468 11.6951 7.82334C11.9264 7.57098 12.0526 7.25552 12.0526 6.85594C12.0526 6.75079 12.0526 6.64563 12.0316 6.56151C12.0105 6.47739 11.9895 6.39327 11.9685 6.30915C11.9474 6.22502 11.9054 6.16193 11.8423 6.09884C11.8002 6.03575 11.7371 5.97266 11.6951 5.9306C11.653 5.88854 11.5899 5.82545 11.5058 5.78338C11.4217 5.74132 11.3586 5.69926 11.2955 5.6572C11.2324 5.61514 11.1483 5.59411 11.0431 5.55205C10.938 5.50999 10.8539 5.48896 10.7697 5.46793C10.6856 5.4469 10.6015 5.40484 10.4753 5.3838C10.2229 5.29968 10.0547 5.23659 9.94955 5.15247C9.86542 5.08938 9.82336 5.02629 9.82336 4.94216C9.82336 4.85804 9.86542 4.79495 9.92851 4.75289C10.0126 4.6898 10.1178 4.66877 10.265 4.66877C10.5594 4.66877 10.8539 4.77392 11.1693 4.98423C11.2534 5.04732 11.3796 5.02629 11.4427 4.94216L11.8423 4.43743C11.8844 4.39537 11.8844 4.33228 11.8844 4.29022C11.8844 4.22713 11.8423 4.18507 11.8002 4.16404C11.653 4.05888 11.5058 3.97476 11.3376 3.89064C11.1483 3.80652 10.959 3.74343 10.7697 3.70136V3.19663C10.7697 3.09148 10.6856 2.98633 10.5594 2.98633H10.0968C9.99161 2.98633 9.88645 3.07045 9.88645 3.19663V3.6593C9.5079 3.7224 9.21348 3.86961 9.00317 4.10094C8.77184 4.35331 8.64565 4.66877 8.64565 5.04732C8.64565 5.13144 8.64565 5.21556 8.66668 5.29968C8.68772 5.3838 8.70875 5.46793 8.72978 5.53102C8.75081 5.59411 8.79287 5.6572 8.83493 5.72029C8.87699 5.78338 8.91905 5.84648 8.98214 5.88854C9.0242 5.9306 9.08729 5.99369 9.12936 6.01472C9.19245 6.05678 9.25554 6.09884 9.31863 6.1409C9.38172 6.18296 9.44481 6.20399 9.5079 6.24606C9.571 6.26709 9.63409 6.30915 9.71821 6.33018C9.80233 6.35121 9.86542 6.39327 9.92851 6.4143C9.99161 6.43533 10.0757 6.45636 10.1599 6.47739C10.244 6.49842 10.3281 6.54048 10.3912 6.56151C10.4543 6.58254 10.5174 6.60357 10.5805 6.64563C10.6225 6.66666 10.6856 6.6877 10.7066 6.72976C10.7277 6.75079 10.7697 6.77182 10.7908 6.81388C10.8118 6.83491 10.8328 6.85594 10.8328 6.898C10.8328 6.91903 10.8539 6.96109 10.8539 7.00315C10.8539 7.10831 10.8118 7.1714 10.7487 7.23449C10.5594 7.3817 10.2019 7.36067 9.82336 7.21346C9.65512 7.15037 9.48687 7.04521 9.33966 6.91903C9.2976 6.87697 9.23451 6.85594 9.19245 6.87697C9.12936 6.87697 9.08729 6.898 9.04523 6.94006L8.62462 7.44479C8.56153 7.52892 8.56153 7.6551 8.64565 7.71819C8.98214 7.94953 9.40275 8.15983 9.88645 8.24395Z" fill="white"/>
<path d="M6.10094 11.7982H14.5131C14.9127 11.7982 15.2492 11.4618 15.2492 11.0622C15.2492 10.6626 14.9127 10.3261 14.5131 10.3261H6.10094C5.70136 10.3261 5.36487 10.6626 5.36487 11.0622C5.36487 11.4618 5.70136 11.7982 6.10094 11.7982Z" fill="white"/>
<path d="M6.10094 14.9736H14.5131C14.9127 14.9736 15.2492 14.6371 15.2492 14.2375C15.2492 13.838 14.9127 13.5015 14.5131 13.5015H6.10094C5.70136 13.5015 5.36487 13.838 5.36487 14.2375C5.36487 14.6371 5.70136 14.9736 6.10094 14.9736Z" fill="white"/>
</svg>
