<svg width="18" height="18" viewBox="0 0 18 18" fill="none" xmlns="http://www.w3.org/2000/svg">
<path d="M15.75 0H2.25C1.00898 0 0 1.00898 0 2.25V12.375C0 13.616 1.00898 14.625 2.25 14.625H5.625V17.5781C5.625 17.8277 5.82891 18 6.04688 18C6.13125 18 6.21914 17.9754 6.29648 17.9156L10.6875 14.625H15.75C16.991 14.625 18 13.616 18 12.375V2.25C18 1.00898 16.991 0 15.75 0ZM16.875 12.375C16.875 12.9937 16.3687 13.5 15.75 13.5H10.3113L10.0125 13.725L6.75 16.1719V13.5H2.25C1.63125 13.5 1.125 12.9937 1.125 12.375V2.25C1.125 1.63125 1.63125 1.125 2.25 1.125H15.75C16.3687 1.125 16.875 1.63125 16.875 2.25V12.375ZM4.5 6.46875C4.03242 6.46875 3.65625 6.84492 3.65625 7.3125C3.65625 7.78008 4.03242 8.15625 4.5 8.15625C4.96758 8.15625 5.34375 7.78008 5.34375 7.3125C5.34375 6.84492 4.96758 6.46875 4.5 6.46875ZM9 6.46875C8.53242 6.46875 8.15625 6.84492 8.15625 7.3125C8.15625 7.78008 8.53242 8.15625 9 8.15625C9.46758 8.15625 9.84375 7.78008 9.84375 7.3125C9.84375 6.84492 9.46758 6.46875 9 6.46875ZM13.5 6.46875C13.0324 6.46875 12.6562 6.84492 12.6562 7.3125C12.6562 7.78008 13.0324 8.15625 13.5 8.15625C13.9676 8.15625 14.3438 7.78008 14.3438 7.3125C14.3438 6.84492 13.9676 6.46875 13.5 6.46875Z" fill="#3D4549"/>
</svg>
