<svg width="33" height="32" viewBox="0 0 33 32" fill="none" xmlns="http://www.w3.org/2000/svg">
<path d="M21.6216 1.03784L6.63062 16.0288L12.7423 22.1405L14.8757 20.0072L10.8973 16.0288L22.1982 4.72793C26.2919 6.91892 29.0018 11.2432 29.0018 16.2018C29.0018 23.409 23.1783 29.2324 15.9711 29.2324C15.4522 29.2324 14.991 29.1748 14.472 29.1171L12.1081 31.5387C13.3766 31.8847 14.7027 32 16.0288 32C24.8504 32 32.0576 24.8504 32.0576 15.9712C32.0576 9.16757 27.6756 3.28649 21.6216 1.03784Z" fill="#A2A9AD"/>
<path d="M25.3693 16.0288L19.2576 9.91711L17.1243 12.0504L21.1027 16.0288L9.62882 27.5027C5.7081 25.254 2.9982 21.045 2.9982 16.2018C2.9982 8.99459 8.82161 3.17117 16.0288 3.17117C16.4324 3.17117 16.836 3.17117 17.2396 3.22883L20.0072 0.461261C18.6811 0.172973 17.3549 0 16.0288 0C7.14954 0 0 7.14954 0 16.0288C0 22.8901 4.32432 28.7711 10.3784 31.0198L25.3693 16.0288Z" fill="#A2A9AD"/>
</svg>
