<svg width="17" height="20" viewBox="0 0 17 20" fill="none" xmlns="http://www.w3.org/2000/svg">
<path d="M7.80017 16.7489V16.6989H7.75017H6.62517H6.57517V16.7489C6.57517 18.0179 7.60723 19.05 8.87517 19.05C10.1431 19.05 11.1752 18.0179 11.1752 16.7489V16.6989H11.1252H10.0002H9.95017V16.7489C9.95017 17.3419 9.46834 17.825 8.87517 17.825C8.28199 17.825 7.80017 17.3419 7.80017 16.7489ZM16.2707 12.7345C15.7814 12.2687 15.3536 11.7957 15.0467 11.0285C14.7392 10.2599 14.5516 9.19222 14.5516 7.53555C14.5516 4.72437 12.3248 2.43225 9.48767 2.1343V1.5625C9.48767 1.2241 9.21356 0.95 8.87517 0.95C8.53677 0.95 8.26267 1.2241 8.26267 1.5625V2.13465C5.4255 2.4326 3.19876 4.72436 3.19876 7.53555C3.19876 9.19204 3.01104 10.2598 2.70347 11.0284C2.39646 11.7956 1.96857 12.2687 1.47932 12.7345C0.973463 13.2161 0.813568 13.9447 1.07187 14.5903C1.33552 15.2494 1.97005 15.675 2.68767 15.675H15.0627C15.7803 15.675 16.4148 15.249 16.6785 14.5899C16.9368 13.9443 16.7765 13.216 16.2707 12.7345ZM2.68767 14.45C2.22731 14.45 2.00834 13.9225 2.32418 13.6218C2.93995 13.0355 3.46631 12.4115 3.83773 11.483C4.20876 10.5556 4.42376 9.32793 4.42376 7.5359C4.42376 5.19697 6.41244 3.3 8.87517 3.3C11.3376 3.3 13.3266 5.19662 13.3266 7.53555C13.3266 9.3207 13.5397 10.5467 13.9098 11.475C14.2803 12.4043 14.8066 13.0318 15.4261 13.6214C15.7432 13.9236 15.5213 14.45 15.0627 14.45H2.68767Z" fill="#3D4549" stroke="#3D4549" stroke-width="0.1"/>
</svg>
