<svg width="5" height="16" viewBox="0 0 5 16" fill="none" xmlns="http://www.w3.org/2000/svg">
<path d="M2.20416 4.00675C3.28596 4.00675 4.17107 3.10799 4.17107 2.0095C4.17107 0.911015 3.28596 0.0122528 2.20416 0.0122528C1.12236 0.0122528 0.237244 0.911015 0.237244 2.0095C0.237244 3.10799 1.12236 4.00675 2.20416 4.00675ZM2.20416 6.004C1.12236 6.004 0.237244 6.90276 0.237244 8.00125C0.237244 9.09974 1.12236 9.9985 2.20416 9.9985C3.28596 9.9985 4.17107 9.09974 4.17107 8.00125C4.17107 6.90276 3.28596 6.004 2.20416 6.004ZM2.20416 11.9958C1.12236 11.9958 0.237244 12.8945 0.237244 13.993C0.237244 15.0915 1.12236 15.9902 2.20416 15.9902C3.28596 15.9902 4.17107 15.0915 4.17107 13.993C4.17107 12.8945 3.28596 11.9958 2.20416 11.9958Z" fill="#CFD2D2"/>
</svg>
